<svg width="300" height="77" viewBox="0 0 300 77" fill="none" xmlns="http://www.w3.org/2000/svg">
    <path
        d="M0 17C0 7.61116 7.61116 0 17 0H65C74.3888 0 82 7.61116 82 17V55C82 64.3888 74.3888 72 65 72H33.5198C31.9358 72 30.4466 72.7546 29.5099 74.032C27.5231 76.7413 23.4769 76.7413 21.4901 74.032C20.5534 72.7546 19.0642 72 17.4802 72H13.2737C5.94284 72 0 66.0572 0 58.7263V17Z"
        fill="black" />
    <g clip-path="url(#clip0_1_13)">
        <path
            d="M58.2651 37.3565C58.2217 36.3792 57.8558 35.5509 57.2063 34.9619L57.1974 34.9542C56.9004 34.6898 56.5563 34.4836 56.1832 34.3462L56.1421 34.3311C54.3857 33.712 52.054 34.5375 50.3406 36.3858C49.0857 37.7368 48.3749 39.4258 48.4393 40.9042C48.4818 41.8819 48.849 42.7106 49.5017 43.3009L49.5089 43.3072C49.806 43.5714 50.15 43.7776 50.5231 43.9151C52.2865 44.5667 54.6368 43.748 56.3776 41.877C57.6234 40.5249 58.3299 38.8358 58.2651 37.3565Z"
            fill="#F9B752" />
        <path
            d="M47.8064 44.1947C47.0227 43.2172 46.2821 42.2927 46.0401 41.0344C45.3762 37.5533 44.975 35.452 42.2581 34.4481C39.5413 33.4442 37.8675 34.7789 35.0958 36.9904C34.092 37.7899 32.926 38.0106 31.6909 38.2451C30.2749 38.5133 28.8119 38.7904 27.7719 40.0153C27.3824 40.4514 27.0801 40.9582 26.8814 41.5082C26.0297 43.8134 27.1321 46.3523 29.3379 47.1674C30.476 47.5879 31.833 47.6411 33.269 47.6973C34.6498 47.7513 36.0772 47.8072 37.1788 48.2143C38.2804 48.6213 39.398 49.5058 40.4777 50.3609C41.6036 51.2485 42.6634 52.0882 43.8048 52.51C46.0074 53.3238 48.4926 52.1105 49.3444 49.8053C49.549 49.2571 49.6467 48.6747 49.6321 48.0897C49.6389 46.4816 48.7072 45.3189 47.8064 44.1947Z"
            fill="#F9B752" />
        <path
            d="M36.294 29.6827C36.7033 30.922 37.4768 31.8069 38.472 32.1746C38.6079 32.2248 38.7473 32.2648 38.889 32.2944C41.0774 32.7562 43.3067 30.7012 43.9659 27.6114C44.2439 26.3127 44.1937 24.989 43.8287 23.8863C43.4199 22.6494 42.6449 21.7647 41.6504 21.3972C41.5145 21.347 41.3751 21.307 41.2334 21.2774C39.045 20.8157 36.8157 22.8706 36.1565 25.9604C35.8786 27.2569 35.9292 28.5794 36.294 29.6827Z"
            fill="#F9B752" />
        <path
            d="M46.2189 35.0028C46.3458 35.0725 46.4778 35.1327 46.6136 35.1829C47.6094 35.5509 48.7718 35.3813 49.8886 34.7059C50.8825 34.1046 51.7783 33.1319 52.4133 31.9658C53.921 29.191 53.5635 26.1803 51.6011 25.1068C51.4742 25.0371 51.3422 24.9769 51.2064 24.9267C50.2114 24.5605 49.0473 24.7287 47.9325 25.4026C46.9382 26.003 46.0393 26.9761 45.4063 28.1451C43.8985 30.9199 44.256 33.9306 46.2189 35.0028Z"
            fill="#F9B752" />
        <path
            d="M30.9891 36.4641L30.9993 36.4642C31.8777 36.4398 32.6947 36.0493 33.3618 35.3345C34.373 34.2506 34.9311 32.5074 34.8574 30.6656C34.755 28.1164 33.5025 25.9658 31.7411 25.3149C31.3683 25.1766 30.9728 25.1095 30.5752 25.1173L30.565 25.1172C29.6894 25.1399 28.8716 25.5329 28.2045 26.2477C27.1933 27.3315 26.6351 29.0748 26.7088 30.9166C26.8112 33.4658 28.0637 35.6164 29.8251 36.2673C30.1974 36.4051 30.5922 36.4719 30.9891 36.4641Z"
            fill="#F9B752" />
    </g>
    <g filter="url(#filter0_d_1_13)">
        <path
            d="M108.225 28.3V43H104.823V36.973H98.145V43H94.743V28.3H98.145V34.096H104.823V28.3H108.225ZM116.029 31.534C117.779 31.534 119.123 31.954 120.061 32.794C120.999 33.62 121.468 34.873 121.468 36.553V43H118.402V41.593C117.786 42.643 116.638 43.168 114.958 43.168C114.09 43.168 113.334 43.021 112.69 42.727C112.06 42.433 111.577 42.027 111.241 41.509C110.905 40.991 110.737 40.403 110.737 39.745C110.737 38.695 111.129 37.869 111.913 37.267C112.711 36.665 113.936 36.364 115.588 36.364H118.192C118.192 35.65 117.975 35.104 117.541 34.726C117.107 34.334 116.456 34.138 115.588 34.138C114.986 34.138 114.391 34.236 113.803 34.432C113.229 34.614 112.739 34.866 112.333 35.188L111.157 32.899C111.773 32.465 112.508 32.129 113.362 31.891C114.23 31.653 115.119 31.534 116.029 31.534ZM115.777 40.963C116.337 40.963 116.834 40.837 117.268 40.585C117.702 40.319 118.01 39.934 118.192 39.43V38.275H115.945C114.601 38.275 113.929 38.716 113.929 39.598C113.929 40.018 114.09 40.354 114.412 40.606C114.748 40.844 115.203 40.963 115.777 40.963ZM131.111 31.534C132.161 31.534 133.113 31.779 133.967 32.269C134.835 32.745 135.514 33.424 136.004 34.306C136.494 35.174 136.739 36.189 136.739 37.351C136.739 38.513 136.494 39.535 136.004 40.417C135.514 41.285 134.835 41.964 133.967 42.454C133.113 42.93 132.161 43.168 131.111 43.168C129.669 43.168 128.535 42.713 127.709 41.803V47.074H124.433V31.702H127.562V33.004C128.374 32.024 129.557 31.534 131.111 31.534ZM130.544 40.48C131.384 40.48 132.07 40.2 132.602 39.64C133.148 39.066 133.421 38.303 133.421 37.351C133.421 36.399 133.148 35.643 132.602 35.083C132.07 34.509 131.384 34.222 130.544 34.222C129.704 34.222 129.011 34.509 128.465 35.083C127.933 35.643 127.667 36.399 127.667 37.351C127.667 38.303 127.933 39.066 128.465 39.64C129.011 40.2 129.704 40.48 130.544 40.48ZM145.61 31.534C146.66 31.534 147.612 31.779 148.466 32.269C149.334 32.745 150.013 33.424 150.503 34.306C150.993 35.174 151.238 36.189 151.238 37.351C151.238 38.513 150.993 39.535 150.503 40.417C150.013 41.285 149.334 41.964 148.466 42.454C147.612 42.93 146.66 43.168 145.61 43.168C144.168 43.168 143.034 42.713 142.208 41.803V47.074H138.932V31.702H142.061V33.004C142.873 32.024 144.056 31.534 145.61 31.534ZM145.043 40.48C145.883 40.48 146.569 40.2 147.101 39.64C147.647 39.066 147.92 38.303 147.92 37.351C147.92 36.399 147.647 35.643 147.101 35.083C146.569 34.509 145.883 34.222 145.043 34.222C144.203 34.222 143.51 34.509 142.964 35.083C142.432 35.643 142.166 36.399 142.166 37.351C142.166 38.303 142.432 39.066 142.964 39.64C143.51 40.2 144.203 40.48 145.043 40.48ZM164.337 31.702L159.234 43.693C158.716 44.995 158.072 45.912 157.302 46.444C156.546 46.976 155.629 47.242 154.551 47.242C153.963 47.242 153.382 47.151 152.808 46.969C152.234 46.787 151.765 46.535 151.401 46.213L152.598 43.882C152.85 44.106 153.137 44.281 153.459 44.407C153.795 44.533 154.124 44.596 154.446 44.596C154.894 44.596 155.258 44.484 155.538 44.26C155.818 44.05 156.07 43.693 156.294 43.189L156.336 43.084L151.443 31.702H154.824L157.995 39.367L161.187 31.702H164.337ZM175.254 31.03V34.915H182.058V37.645H175.254V43H171.852V28.3H182.961V31.03H175.254ZM187.957 33.193C188.349 32.647 188.874 32.234 189.532 31.954C190.204 31.674 190.974 31.534 191.842 31.534V34.558C191.478 34.53 191.233 34.516 191.107 34.516C190.169 34.516 189.434 34.782 188.902 35.314C188.37 35.832 188.104 36.616 188.104 37.666V43H184.828V31.702H187.957V33.193ZM193.79 31.702H197.066V43H193.79V31.702ZM195.428 30.127C194.826 30.127 194.336 29.952 193.958 29.602C193.58 29.252 193.391 28.818 193.391 28.3C193.391 27.782 193.58 27.348 193.958 26.998C194.336 26.648 194.826 26.473 195.428 26.473C196.03 26.473 196.52 26.641 196.898 26.977C197.276 27.313 197.465 27.733 197.465 28.237C197.465 28.783 197.276 29.238 196.898 29.602C196.52 29.952 196.03 30.127 195.428 30.127ZM211.174 37.393C211.174 37.435 211.153 37.729 211.111 38.275H202.564C202.718 38.975 203.082 39.528 203.656 39.934C204.23 40.34 204.944 40.543 205.798 40.543C206.386 40.543 206.904 40.459 207.352 40.291C207.814 40.109 208.241 39.829 208.633 39.451L210.376 41.341C209.312 42.559 207.758 43.168 205.714 43.168C204.44 43.168 203.313 42.923 202.333 42.433C201.353 41.929 200.597 41.236 200.065 40.354C199.533 39.472 199.267 38.471 199.267 37.351C199.267 36.245 199.526 35.251 200.044 34.369C200.576 33.473 201.297 32.78 202.207 32.29C203.131 31.786 204.16 31.534 205.294 31.534C206.4 31.534 207.401 31.772 208.297 32.248C209.193 32.724 209.893 33.41 210.397 34.306C210.915 35.188 211.174 36.217 211.174 37.393ZM205.315 34.012C204.573 34.012 203.95 34.222 203.446 34.642C202.942 35.062 202.634 35.636 202.522 36.364H208.087C207.975 35.65 207.667 35.083 207.163 34.663C206.659 34.229 206.043 34.012 205.315 34.012ZM220.222 31.534C221.622 31.534 222.749 31.954 223.603 32.794C224.471 33.634 224.905 34.88 224.905 36.532V43H221.629V37.036C221.629 36.14 221.433 35.475 221.041 35.041C220.649 34.593 220.082 34.369 219.34 34.369C218.514 34.369 217.856 34.628 217.366 35.146C216.876 35.65 216.631 36.406 216.631 37.414V43H213.355V31.702H216.484V33.025C216.918 32.549 217.457 32.185 218.101 31.933C218.745 31.667 219.452 31.534 220.222 31.534ZM239.505 27.418V43H236.376V41.698C235.564 42.678 234.388 43.168 232.848 43.168C231.784 43.168 230.818 42.93 229.95 42.454C229.096 41.978 228.424 41.299 227.934 40.417C227.444 39.535 227.199 38.513 227.199 37.351C227.199 36.189 227.444 35.167 227.934 34.285C228.424 33.403 229.096 32.724 229.95 32.248C230.818 31.772 231.784 31.534 232.848 31.534C234.29 31.534 235.417 31.989 236.229 32.899V27.418H239.505ZM233.415 40.48C234.241 40.48 234.927 40.2 235.473 39.64C236.019 39.066 236.292 38.303 236.292 37.351C236.292 36.399 236.019 35.643 235.473 35.083C234.927 34.509 234.241 34.222 233.415 34.222C232.575 34.222 231.882 34.509 231.336 35.083C230.79 35.643 230.517 36.399 230.517 37.351C230.517 38.303 230.79 39.066 231.336 39.64C231.882 40.2 232.575 40.48 233.415 40.48ZM246.338 43.168C245.4 43.168 244.483 43.056 243.587 42.832C242.691 42.594 241.977 42.3 241.445 41.95L242.537 39.598C243.041 39.92 243.65 40.186 244.364 40.396C245.078 40.592 245.778 40.69 246.464 40.69C247.85 40.69 248.543 40.347 248.543 39.661C248.543 39.339 248.354 39.108 247.976 38.968C247.598 38.828 247.017 38.709 246.233 38.611C245.309 38.471 244.546 38.31 243.944 38.128C243.342 37.946 242.817 37.624 242.369 37.162C241.935 36.7 241.718 36.042 241.718 35.188C241.718 34.474 241.921 33.844 242.327 33.298C242.747 32.738 243.349 32.304 244.133 31.996C244.931 31.688 245.869 31.534 246.947 31.534C247.745 31.534 248.536 31.625 249.32 31.807C250.118 31.975 250.776 32.213 251.294 32.521L250.202 34.852C249.208 34.292 248.123 34.012 246.947 34.012C246.247 34.012 245.722 34.11 245.372 34.306C245.022 34.502 244.847 34.754 244.847 35.062C244.847 35.412 245.036 35.657 245.414 35.797C245.792 35.937 246.394 36.07 247.22 36.196C248.144 36.35 248.9 36.518 249.488 36.7C250.076 36.868 250.587 37.183 251.021 37.645C251.455 38.107 251.672 38.751 251.672 39.577C251.672 40.277 251.462 40.9 251.042 41.446C250.622 41.992 250.006 42.419 249.194 42.727C248.396 43.021 247.444 43.168 246.338 43.168Z"
            fill="black" />
    </g>
    <defs>
        <filter id="filter0_d_1_13" x="74.743" y="11.473" width="196.929" height="60.769" filterUnits="userSpaceOnUse"
            color-interpolation-filters="sRGB">
            <feFlood flood-opacity="0" result="BackgroundImageFix" />
            <feColorMatrix in="SourceAlpha" type="matrix" values="0 0 0 0 0 0 0 0 0 0 0 0 0 0 0 0 0 0 127 0"
                result="hardAlpha" />
            <feOffset dy="5" />
            <feGaussianBlur stdDeviation="10" />
            <feComposite in2="hardAlpha" operator="out" />
            <feColorMatrix type="matrix" values="0 0 0 0 0 0 0 0 0 0 0 0 0 0 0 0 0 0 0.4 0" />
            <feBlend mode="normal" in2="BackgroundImageFix" result="effect1_dropShadow_1_13" />
            <feBlend mode="normal" in="SourceGraphic" in2="effect1_dropShadow_1_13" result="shape" />
        </filter>
        <clipPath id="clip0_1_13">
            <rect width="35" height="35" fill="white" transform="translate(31.1501 14.0193) rotate(20.2792)" />
        </clipPath>
    </defs>
</svg>